<?xml version="1.0" standalone="no"?>
<!DOCTYPE svg PUBLIC "-//W3C//DTD SVG 20010904//EN"
 "http://www.w3.org/TR/2001/REC-SVG-20010904/DTD/svg10.dtd">
<svg version="1.0" xmlns="http://www.w3.org/2000/svg"
 width="898.000000pt" height="898.000000pt" viewBox="0 0 898.000000 898.000000"
 preserveAspectRatio="xMidYMid meet">

<g transform="translate(0.000000,898.000000) scale(0.100000,-0.100000)"
fill="#000000" stroke="none">
<path d="M4205 8189 c-461 -60 -878 -357 -1085 -774 -115 -233 -145 -363 -145
-640 0 -277 30 -407 145 -640 264 -533 849 -847 1440 -775 609 75 1096 525
1227 1133 25 116 25 448 0 564 -28 129 -63 229 -127 358 -266 537 -855 850
-1455 774z"/>
<path d="M6764 5759 l-1252 -1252 -89 51 c-313 179 -635 264 -1003 264 -247 0
-452 -34 -674 -112 -546 -193 -989 -630 -1172 -1157 -22 -62 -33 -82 -44 -78
-31 10 -1686 385 -1697 385 -7 0 -13 -6 -13 -13 0 -8 371 -261 825 -563 l824
-549 1 -867 0 -868 1950 0 1951 0 -4 1083 c-3 970 -5 1091 -21 1167 -44 222
-111 414 -201 572 l-51 92 301 456 c718 1084 1633 2562 1623 2621 -2 14 -343
-321 -1254 -1232z m1104 1009 c-223 -383 -582 -964 -968 -1568 -457 -715
-2473 -3728 -2491 -3722 -10 2 -3488 2319 -3503 2332 -5 5 9 4 30 -1 22 -6
748 -171 1614 -369 l1575 -358 1905 1904 c1048 1047 1906 1904 1907 1904 1 0
-30 -55 -69 -122z"/>
</g>
</svg>
